<svg width="608" height="578" viewBox="0 0 608 578" fill="none" xmlns="http://www.w3.org/2000/svg">
<g filter="url(#filter0_d_3_207)">
<path d="M205.504 43.2302C207.272 42.1588 209.174 41.3314 211.158 40.7702L212.314 35.1245L221.75 34.9523L223.112 40.5611C225.112 41.06 227.038 41.8252 228.839 42.8366L233.606 39.6755L240.403 46.3175L237.448 51.2375C238.508 53.0211 239.326 54.9407 239.88 56.9447L245.462 58.1132L245.632 67.658L240.087 69.0233C239.596 71.0472 238.839 72.9956 237.837 74.8166L240.963 79.6505L234.396 86.5139L229.532 83.525C227.769 84.597 225.871 85.4244 223.89 85.985L222.674 91.6307L213.238 91.8029L211.876 86.1941C209.88 85.6951 207.958 84.9299 206.161 83.9186L201.382 87.0797L194.56 80.45L197.515 75.53C196.456 73.7417 195.638 71.8182 195.083 69.8105L189.501 68.5805L189.331 59.0357L194.876 57.6581C195.369 55.6348 196.126 53.6867 197.126 51.8648L194.001 47.0309L200.64 40.2413L205.504 43.2302ZM210.538 55.9484C209.146 57.4055 208.212 59.2474 207.855 61.2413C207.498 63.2352 207.733 65.2914 208.531 67.1501C209.329 69.0087 210.654 70.5862 212.339 71.6832C214.023 72.7802 215.991 73.3473 217.994 73.3129C219.997 73.2785 221.945 72.6441 223.592 71.4899C225.238 70.3358 226.509 68.7137 227.245 66.8287C227.98 64.9437 228.146 62.8806 227.722 60.9001C227.298 58.9197 226.303 57.1109 224.863 55.7024C223.905 54.7611 222.772 54.0205 221.53 53.5232C220.288 53.0259 218.961 52.7817 217.626 52.8045C216.29 52.8274 214.972 53.1169 213.748 53.6564C212.523 54.1959 211.416 54.9748 210.49 55.9484H210.538Z" fill="#E0E0E0"/>
<path d="M207.693 360.004C208.711 359.383 209.807 358.904 210.952 358.578L211.62 355.318L217.068 355.22L217.846 358.455C219.002 358.737 220.114 359.176 221.154 359.758L223.902 357.938L227.818 361.763L226.176 364.58C226.79 365.61 227.264 366.719 227.587 367.876L230.809 368.553L230.906 374.063L227.708 374.851C227.429 376.019 226.995 377.144 226.419 378.196L228.219 380.976L224.437 384.936L221.628 383.214C220.608 383.834 219.512 384.318 218.369 384.654L217.664 387.95L212.216 388.048L211.438 384.814C210.283 384.531 209.17 384.092 208.131 383.51L205.382 385.33L201.467 381.505L203.169 378.664C202.557 377.631 202.078 376.523 201.747 375.367L198.536 374.691L198.439 369.18L201.637 368.393C201.916 367.224 202.35 366.099 202.926 365.047L201.126 362.268L204.908 358.307L207.717 360.029L207.693 360.004ZM210.599 367.384C209.794 368.226 209.253 369.29 209.046 370.442C208.839 371.594 208.974 372.782 209.435 373.856C209.896 374.93 210.662 375.842 211.635 376.476C212.609 377.109 213.746 377.436 214.904 377.416C216.061 377.395 217.187 377.027 218.137 376.359C219.088 375.691 219.822 374.753 220.245 373.663C220.668 372.573 220.762 371.381 220.515 370.237C220.267 369.093 219.69 368.049 218.856 367.237C218.307 366.695 217.659 366.267 216.947 365.979C216.235 365.69 215.474 365.546 214.707 365.555C213.94 365.565 213.183 365.727 212.478 366.032C211.773 366.337 211.135 366.78 210.599 367.335V367.384Z" fill="#E0E0E0"/>
<path d="M89.1085 73.5989C89.8042 73.1733 90.5524 72.8425 91.3337 72.6149L91.7958 70.3886H95.5046L96.064 72.5288C96.852 72.7313 97.6119 73.033 98.3257 73.4267L100.198 72.1967L102.874 74.8043L101.658 76.7477C102.078 77.4514 102.405 78.2083 102.63 78.9986L104.831 79.466V83.156L102.643 83.6972C102.452 84.4956 102.158 85.265 101.767 85.985L102.983 87.8792L100.405 90.5852L98.4838 89.3552C97.7881 89.7808 97.0399 90.1116 96.2585 90.3392L95.7965 92.5655H92.1485L91.6134 90.3515C90.8241 90.1589 90.0635 89.8611 89.3517 89.4659L87.479 90.6959L84.8038 88.076L86.0198 86.1449C85.5991 85.4411 85.272 84.6843 85.047 83.894L82.8461 83.4266L82.7853 79.7366L84.9619 79.1954C85.1621 78.3983 85.4603 77.6297 85.8496 76.9076L84.6336 75.0134L87.2115 72.3074L89.1328 73.5374L89.1085 73.5989ZM91.0905 78.605C90.5428 79.179 90.1756 79.9044 90.0353 80.6894C89.8951 81.4745 89.9881 82.284 90.3026 83.0156C90.6171 83.7472 91.139 84.3681 91.8022 84.7997C92.4655 85.2314 93.2404 85.4544 94.029 85.4406C94.8176 85.4269 95.5844 85.177 96.2326 84.7225C96.8808 84.2679 97.3812 83.6292 97.6706 82.8871C97.9599 82.145 98.0253 81.3327 97.8584 80.553C97.6915 79.7733 97.2998 79.0612 96.7328 78.5066C96.356 78.1381 95.9112 77.8483 95.4237 77.6538C94.9361 77.4593 94.4155 77.3639 93.8915 77.373C93.3675 77.3822 92.8504 77.4957 92.3698 77.7071C91.8892 77.9185 91.4545 78.2236 91.0905 78.605Z" fill="#E0E0E0"/>
<path d="M270.633 65.69C272.005 64.8514 273.481 64.202 275.023 63.7589L275.923 59.3678L283.219 59.2325L284.276 63.599C285.836 63.9846 287.337 64.5803 288.739 65.3702L292.387 62.9102L297.774 68.15L295.488 71.9384C296.32 73.3288 296.962 74.8266 297.397 76.391L301.75 77.3012L301.872 84.6812L297.567 85.7513C297.176 87.3366 296.579 88.8627 295.792 90.29L298.224 94.0538L293.129 99.392L289.335 97.0673C287.962 97.9033 286.486 98.5526 284.945 98.9984L284.033 103.389L276.737 103.525L275.679 99.1583C274.104 98.7818 272.586 98.1901 271.168 97.3994L267.52 99.8594L262.23 94.7057L264.529 90.8681C263.701 89.4754 263.059 87.9783 262.62 86.4155L258.278 85.5053L258.145 78.1253L262.461 77.0552C262.843 75.4819 263.432 73.9677 264.212 72.5534L261.78 68.7896L266.876 63.4514L270.633 65.69ZM274.548 75.53C273.467 76.665 272.742 78.099 272.466 79.6507C272.19 81.2024 272.375 82.802 272.998 84.2472C273.621 85.6924 274.654 86.9183 275.965 87.7698C277.277 88.6213 278.809 89.0602 280.367 89.031C281.926 89.0017 283.441 88.5056 284.72 87.6055C286 86.7053 286.987 85.4415 287.556 83.9739C288.126 82.5063 288.252 80.9009 287.919 79.3606C287.587 77.8204 286.81 76.4145 285.687 75.3209C284.936 74.5999 284.053 74.0358 283.086 73.6609C282.12 73.2861 281.089 73.1078 280.055 73.1364C279.02 73.1649 278.001 73.3998 277.056 73.8274C276.111 74.255 275.259 74.867 274.548 75.6284V75.53Z" fill="#EBEBEB"/>
<path d="M464.767 249.083C466.526 248.011 468.42 247.184 470.397 246.623L471.613 240.977L481.037 240.805L482.399 246.414C484.401 246.907 486.328 247.673 488.127 248.689L492.881 245.528L499.667 252.158L496.724 257.078C497.777 258.865 498.594 260.784 499.156 262.785L504.737 264.015L504.908 273.548L499.363 274.925C498.875 276.946 498.118 278.891 497.113 280.706L500.238 285.528L493.696 292.317L488.832 289.329C487.068 290.399 485.17 291.226 483.19 291.789L481.974 297.434L472.55 297.594L471.188 292.01C469.191 291.511 467.27 290.746 465.473 289.734L460.706 292.896L453.921 286.266L456.876 281.346C455.816 279.567 454.998 277.651 454.444 275.651L448.862 274.421L448.704 264.95L454.237 263.572C454.73 261.549 455.486 259.601 456.486 257.779L453.361 252.97L459.916 246.106L464.78 249.095L464.767 249.083ZM469.789 261.789C468.401 263.246 467.471 265.086 467.116 267.078C466.762 269.069 466.999 271.123 467.798 272.978C468.597 274.833 469.921 276.407 471.604 277.501C473.287 278.595 475.253 279.159 477.254 279.123C479.254 279.087 481.199 278.452 482.842 277.298C484.486 276.144 485.754 274.524 486.487 272.641C487.22 270.758 487.384 268.697 486.96 266.72C486.535 264.742 485.541 262.936 484.102 261.531C483.146 260.595 482.018 259.859 480.781 259.366C479.543 258.872 478.222 258.63 476.893 258.654C475.563 258.678 474.251 258.968 473.032 259.505C471.813 260.043 470.711 260.819 469.789 261.789Z" fill="#E0E0E0"/>
<path d="M531.392 63.5006C531.399 59.5277 530.5 55.6066 528.765 52.0424C527.03 48.4782 524.505 45.3669 521.388 42.9504C518.27 40.534 514.643 38.8776 510.79 38.11C506.936 37.3424 502.959 37.4844 499.169 38.5248C495.378 39.5653 491.876 41.4762 488.934 44.1089C485.993 46.7416 483.691 50.0252 482.209 53.7043C480.726 57.3833 480.103 61.3587 480.387 65.3213C480.671 69.2838 481.855 73.1266 483.846 76.5509L483.919 76.6493C484.892 78.3221 486.12 79.5152 487.361 81.2618L502.208 101.139C502.639 101.703 503.191 102.16 503.824 102.474C504.456 102.788 505.151 102.952 505.856 102.952C506.561 102.952 507.256 102.788 507.888 102.474C508.521 102.16 509.073 101.703 509.504 101.139L524.096 81.5939C525.422 80.0249 526.66 78.3824 527.805 76.6739L527.866 76.6001C530.181 72.6326 531.399 68.108 531.392 63.5006ZM505.856 74.7428C503.634 74.7404 501.463 74.0717 499.617 72.8214C497.771 71.5711 496.333 69.7953 495.484 67.7183C494.636 65.6414 494.415 63.3566 494.85 61.1528C495.285 58.949 496.356 56.9251 497.928 55.3368C499.499 53.7486 501.501 52.6674 503.681 52.2299C505.86 51.7923 508.118 52.0181 510.171 52.8787C512.223 53.7393 513.977 55.196 515.211 57.0647C516.445 58.9334 517.104 61.1303 517.104 63.3776C517.104 64.8711 516.813 66.35 516.248 67.7297C515.682 69.1094 514.853 70.3628 513.809 71.4183C512.764 72.4739 511.524 73.3108 510.16 73.8812C508.795 74.4516 507.333 74.7444 505.856 74.7428Z" fill="#E0E0E0"/>
<path d="M81.8003 435.243C84.3881 433.424 86.3908 430.875 87.5602 427.915C88.7296 424.954 89.0143 421.712 88.3789 418.589C86.713 409.746 78.6509 403.829 70.5158 405.416C62.3808 407.003 57.0182 415.44 58.6841 424.296C59.2282 427.464 60.689 430.397 62.8817 432.725C65.0745 435.052 67.9005 436.669 71.0022 437.371C48.8467 445.342 54.72 470.237 54.72 470.237L108.747 459.856C108.747 459.856 105.099 434.247 81.8003 435.243Z" fill="#EBEBEB"/>
<path d="M147.258 541.368L136.192 538.588C136.192 538.588 133.894 548.035 124.141 545.784C122.256 545.385 120.54 544.402 119.232 542.972C117.925 541.541 117.09 539.733 116.845 537.801C116.615 536.182 116.768 534.531 117.29 532.983C117.812 531.436 118.689 530.035 119.849 528.896C122.5 526.214 127.34 524.382 134.441 527.592L140.63 502.217L129.626 499.474L125.978 514.345C125.978 514.345 109.574 514.529 105.391 531.725C101.378 548.182 115.034 555.636 121.284 557.186C126.075 558.379 142.625 561.269 147.258 541.368Z" fill="#EBEBEB"/>
<path d="M130.759 494.22L141.916 497.001L144.485 486.455L133.327 483.674L130.759 494.22Z" fill="#EBEBEB"/>
<path d="M70.528 270.116H95.9302L93.6928 281.641H47.9347L49.7466 272.478L77.289 250.645C84.0986 245.135 86.1779 241.912 86.1779 237.89C86.1779 233.868 83.1501 231.162 77.289 231.162C74.8151 231.199 72.3803 231.792 70.1599 232.895C67.9394 233.999 65.9887 235.587 64.448 237.546L55.0362 230.645C59.9002 223.917 68.935 219.465 79.3562 219.465C92.1363 219.465 100.502 226.365 100.502 235.885C100.502 243.13 97.2314 249.243 86.6035 257.545L70.528 270.116Z" fill="#263238"/>
<path d="M156.451 268.812H146.528L144.023 281.641H130.38L132.97 268.812H100.417L102.229 259.292L137.809 220.51H153.082L119.934 257.275H135.815L138.065 245.836H151.1L148.851 257.275H158.785L156.451 268.812Z" fill="#263238"/>
<path d="M196.335 208.112H208.945L164.573 290.374H152L196.335 208.112Z" fill="#263238"/>
<path d="M253.925 220.51L252.113 229.686L219.828 281.641H204.288L235.272 232.035H215.682L213.688 241.998H201.26L205.504 220.51H253.925Z" fill="#263238"/>
<path d="M42.2803 329.869L45.8189 323.08C48.9727 325.118 52.6314 326.214 56.3738 326.241C59.8272 326.241 61.8214 325.146 61.8214 323.4C61.8214 319.082 46.4026 321.469 46.4026 311.383C46.4026 304.458 52.2515 299.919 61.639 299.919C65.6205 299.785 69.5643 300.737 73.0573 302.674L69.7984 309.414C67.1815 307.785 64.1646 306.933 61.0918 306.954C57.3709 306.954 55.3766 308.332 55.3766 310.079C55.3766 314.482 70.7955 311.961 70.7955 321.862C70.7955 328.738 64.8128 333.276 55.5226 333.276C50.0749 333.301 45.1379 331.837 42.2803 329.869Z" fill="#263238"/>
<path d="M86.7859 307.582L85.7523 312.994H99.8458L98.496 319.771H84.3904L83.2473 325.651H99.8944L98.4352 332.661H72.96L79.3562 300.62H104.199L102.788 307.643L86.7859 307.582Z" fill="#263238"/>
<path d="M127.352 323.031L132.751 332.661H123.363L118.645 324.138H114.122L112.444 332.661H103.469L109.805 300.62H123.363C131.474 300.62 136.143 304.433 136.143 310.854C136.207 313.579 135.38 316.25 133.79 318.451C132.201 320.653 129.938 322.263 127.352 323.031ZM122.099 307.717H117.38L115.52 317.114H120.87C124.822 317.114 127.133 315.195 127.133 311.665C127.084 308.959 125.175 307.717 122.099 307.717Z" fill="#263238"/>
<path d="M175.481 300.62L155.648 332.661H146.808L139.536 300.62H148.741L153.277 321.53L166.239 300.62H175.481Z" fill="#263238"/>
<path d="M177.378 300.62H186.364L179.968 332.661H170.994L177.378 300.62Z" fill="#263238"/>
<path d="M187.763 319.181C187.763 308.037 195.873 299.919 207.656 299.919C213.505 299.919 218.272 302.084 220.534 305.971L214.016 311.198C213.288 310.005 212.255 309.033 211.027 308.383C209.799 307.734 208.42 307.432 207.036 307.508C200.871 307.508 196.785 312.317 196.785 318.639C196.785 322.957 199.692 325.847 204.543 325.847C206.025 325.854 207.489 325.527 208.829 324.888C210.169 324.25 211.351 323.317 212.289 322.157L217.591 327.422C214.016 331.788 209.347 333.387 203.68 333.387C193.976 333.301 187.763 327.569 187.763 319.181Z" fill="#263238"/>
<path d="M233.63 307.582L232.584 312.994H246.678L245.364 319.771H231.222L230.092 325.651H246.726L245.279 332.661H219.853L226.176 300.62H251.019L249.62 307.643L233.63 307.582Z" fill="#263238"/>
<path d="M76.7904 202.417H59.0733C59.0733 177.472 69.0566 151.987 86.4576 132.43C104.771 111.877 128.543 100.561 153.338 100.561C204.008 100.561 239.406 137.977 239.406 191.581H221.725C221.725 147.879 194.256 118.519 153.374 118.519C113.295 118.482 76.7904 158.481 76.7904 202.417Z" fill="#5ED8FF"/>
<path d="M86.5062 197.435C89.3395 197.435 91.6378 197.718 91.6256 197.977C91.6134 198.235 89.3274 198.432 86.5062 198.432C83.6851 198.432 81.3747 198.198 81.3747 197.89C81.3747 197.583 83.6851 197.386 86.5062 197.435Z" fill="#263238"/>
<path d="M98.7392 158.149C101.171 159.724 102.813 161.335 102.545 161.765C102.278 162.196 100.113 161.322 97.6813 159.834C95.2493 158.346 93.632 156.71 93.8874 156.218C94.1427 155.726 96.368 156.587 98.7392 158.149Z" fill="#263238"/>
<path d="M129.382 131.077C130.538 133.697 131.109 135.997 130.598 136.194C130.088 136.39 128.787 134.484 127.546 131.913C126.306 129.343 125.734 126.993 126.33 126.796C126.926 126.6 128.239 128.42 129.382 131.077Z" fill="#263238"/>
<path d="M169.754 127.854C169.048 130.634 168.088 132.774 167.613 132.676C167.139 132.577 167.236 130.216 167.844 127.399C168.452 124.582 169.401 122.479 169.985 122.59C170.568 122.7 170.459 125.087 169.754 127.854Z" fill="#263238"/>
<path d="M202.732 151.298C200.372 152.872 198.244 153.832 197.965 153.438C197.685 153.045 199.327 151.347 201.613 149.662C203.899 147.977 206.039 147.03 206.38 147.522C206.72 148.014 205.091 149.711 202.732 151.298Z" fill="#263238"/>
<path d="M213.59 189.92C210.769 189.92 208.471 189.699 208.471 189.453C208.471 189.207 210.757 188.961 213.59 188.924C216.424 188.887 218.71 189.096 218.722 189.391C218.734 189.686 216.448 189.92 213.59 189.92Z" fill="#263238"/>
<path d="M148.534 195.258C147.652 195.264 146.794 194.965 146.102 194.41L116.323 171.039C115.497 170.387 114.961 169.43 114.834 168.378C114.706 167.326 114.997 166.266 115.642 165.431C116.287 164.596 117.233 164.054 118.273 163.925C119.313 163.796 120.361 164.089 121.187 164.742L148.352 186.046L185.866 151.2C186.632 150.48 187.649 150.098 188.693 150.137C189.737 150.177 190.724 150.634 191.435 151.409C192.146 152.183 192.524 153.212 192.485 154.269C192.446 155.325 191.994 156.323 191.228 157.042L151.258 194.188C150.518 194.883 149.544 195.265 148.534 195.258Z" fill="#5ED8FF"/>
<path d="M168.732 74.2139H134.587C134.056 74.2139 133.626 74.6489 133.626 75.1856V87.6947C133.626 88.2314 134.056 88.6664 134.587 88.6664H168.732C169.263 88.6664 169.693 88.2314 169.693 87.6947V75.1856C169.693 74.6489 169.263 74.2139 168.732 74.2139Z" fill="#5ED8FF"/>
<path d="M160.974 81.4463H142.333V98.5433H160.974V81.4463Z" fill="#5ED8FF"/>
<path d="M74.7115 118.444L60.7086 135.986C60.1643 136.668 60.2695 137.667 60.9436 138.217L70.5179 146.037C71.1919 146.588 72.1795 146.481 72.7238 145.799L86.7267 128.258C87.2709 127.576 87.1657 126.577 86.4917 126.027L76.9174 118.207C76.2434 117.656 75.2558 117.763 74.7115 118.444Z" fill="#5ED8FF"/>
<path d="M168.732 88.6664C168.732 88.8755 161.084 89.0354 151.708 89.0354C142.333 89.0354 134.684 88.8755 134.684 88.6664C134.684 88.4573 142.321 88.2974 151.708 88.2974C161.096 88.2974 168.732 88.4696 168.732 88.6664Z" fill="#263238"/>
<path d="M74.3949 142.786C74.2003 143.008 71.6224 141.015 68.4365 138.592C65.2506 136.169 62.6605 134.201 62.8186 133.955C62.9766 133.709 65.8342 135.308 69.0566 137.756C72.279 140.203 74.5773 142.577 74.3949 142.786Z" fill="#263238"/>
<path d="M77.3619 138.371C77.1674 138.592 74.5895 136.6 71.4035 134.176C68.2176 131.753 65.6154 129.785 65.7735 129.539C65.9315 129.293 68.8013 130.892 72.0237 133.352C75.2461 135.812 77.5443 138.162 77.3619 138.371Z" fill="#263238"/>
<path d="M80.9978 134.668C80.8154 134.89 78.2375 132.897 75.0515 130.474C71.8656 128.051 69.312 126.083 69.4215 125.837C69.5309 125.591 72.4493 127.19 75.6595 129.65C78.8698 132.11 81.1923 134.459 80.9978 134.668Z" fill="#263238"/>
<path d="M84.5242 130.253C84.3418 130.474 81.7517 128.482 78.5658 126.058C75.3798 123.635 72.7898 121.667 72.96 121.421C73.1302 121.175 75.9878 122.774 79.1981 125.234C82.4083 127.694 84.7066 130.044 84.5242 130.253Z" fill="#263238"/>
<path d="M237.372 123.989L222.299 107.379C221.713 106.734 220.721 106.691 220.083 107.283L211.017 115.701C210.379 116.294 210.336 117.297 210.922 117.943L225.995 134.552C226.581 135.198 227.573 135.241 228.211 134.648L237.277 126.231C237.915 125.638 237.958 124.634 237.372 123.989Z" fill="#5ED8FF"/>
<path d="M213.615 120.081C213.432 119.859 215.755 117.621 218.6 114.742C221.446 111.864 223.744 109.613 223.963 109.822C224.182 110.032 222.2 112.651 219.318 115.505C216.436 118.359 213.785 120.29 213.615 120.081Z" fill="#263238"/>
<path d="M217.494 123.697C217.299 123.475 219.634 121.237 222.467 118.359C225.3 115.48 227.623 113.23 227.842 113.439C228.061 113.648 226.067 116.268 223.197 119.121C220.327 121.975 217.664 123.906 217.494 123.697Z" fill="#263238"/>
<path d="M220.57 127.891C220.376 127.67 222.71 125.431 225.544 122.553C228.377 119.675 230.7 117.424 230.918 117.633C231.137 117.842 229.143 120.45 226.261 123.303C223.379 126.157 220.74 128.1 220.57 127.891Z" fill="#263238"/>
<path d="M224.364 132.11C224.17 131.889 226.504 129.65 229.338 126.772C232.171 123.894 234.493 121.643 234.712 121.852C234.931 122.061 232.937 124.681 230.055 127.534C227.173 130.388 224.534 132.282 224.364 132.11Z" fill="#263238"/>
<path d="M138.417 88.6541C138.138 88.6541 137.907 85.4561 137.907 81.5324C137.907 77.6087 138.138 74.3984 138.417 74.3984C138.697 74.3984 138.94 77.5964 138.94 81.5324C138.94 85.4684 138.709 88.6541 138.417 88.6541Z" fill="#263238"/>
<path d="M145.105 88.6541C144.826 88.6541 144.595 85.4561 144.595 81.5324C144.595 77.6087 144.826 74.3984 145.105 74.3984C145.385 74.3984 145.616 77.5964 145.616 81.5324C145.616 85.4684 145.385 88.6541 145.105 88.6541Z" fill="#263238"/>
<path d="M151.781 88.6541C151.501 88.6541 151.27 85.4561 151.27 81.5324C151.27 77.6087 151.501 74.3984 151.781 74.3984C152.061 74.3984 152.292 77.5964 152.292 81.5324C152.292 85.4684 152.073 88.6541 151.781 88.6541Z" fill="#263238"/>
<path d="M158.469 88.6541C158.177 88.6541 157.958 85.4561 157.958 81.5324C157.958 77.6087 158.177 74.3984 158.469 74.3984C158.761 74.3984 158.98 77.5964 158.98 81.5324C158.98 85.4684 158.749 88.6541 158.469 88.6541Z" fill="#263238"/>
<path d="M165.145 88.6541C164.865 88.6541 164.634 85.4561 164.634 81.5324C164.634 77.6087 164.865 74.3984 165.145 74.3984C165.425 74.3984 165.656 77.5964 165.656 81.5324C165.656 85.4684 165.376 88.6541 165.145 88.6541Z" fill="#263238"/>
<path d="M155.762 196.288C159.248 192.762 159.248 187.046 155.762 183.52C152.277 179.994 146.625 179.994 143.14 183.52C139.654 187.046 139.654 192.762 143.14 196.288C146.625 199.813 152.277 199.814 155.762 196.288Z" fill="#5ED8FF"/>
<path d="M158.372 189.92C158.287 189.92 158.299 189.121 157.922 187.755C157.381 185.85 156.231 184.18 154.651 183.007C153.385 182.056 151.882 181.48 150.31 181.342C148.739 181.204 147.161 181.511 145.751 182.228C144.342 182.945 143.158 184.044 142.33 185.402C141.503 186.76 141.064 188.325 141.064 189.92C141.064 191.515 141.503 193.08 142.33 194.438C143.158 195.796 144.342 196.895 145.751 197.612C147.161 198.329 148.739 198.636 150.31 198.498C151.882 198.36 153.385 197.784 154.651 196.833C156.228 195.657 157.378 193.988 157.922 192.085C158.299 190.719 158.287 189.92 158.372 189.92C158.457 189.92 158.372 190.117 158.372 190.498C158.391 191.061 158.334 191.624 158.202 192.171C157.765 194.224 156.629 196.057 154.991 197.349C153.768 198.321 152.321 198.963 150.786 199.217C149.251 199.471 147.677 199.328 146.212 198.801C144.397 198.15 142.827 196.947 141.716 195.357C140.605 193.767 140.009 191.867 140.009 189.92C140.009 187.973 140.605 186.074 141.716 184.483C142.827 182.893 144.397 181.69 146.212 181.039C147.677 180.514 149.249 180.371 150.784 180.622C152.318 180.874 153.765 181.512 154.991 182.479C156.628 183.776 157.764 185.613 158.202 187.669C158.334 188.216 158.391 188.779 158.372 189.342C158.433 189.699 158.408 189.92 158.372 189.92Z" fill="#263238"/>
<path d="M463.624 220.842L478.873 218.382C488.867 226.539 501.517 230.619 514.335 229.821C527.152 229.022 539.211 223.402 548.14 214.066C557.069 204.73 562.223 192.354 562.588 179.369C562.953 166.384 558.503 153.731 550.113 143.897C541.723 134.063 529.999 127.759 517.247 126.225C504.495 124.691 491.637 128.037 481.2 135.607C470.764 143.176 463.504 154.42 460.848 167.129C458.192 179.838 460.331 193.092 466.847 204.286L463.624 220.842Z" fill="white"/>
<path d="M463.624 220.842C463.624 220.842 463.624 220.498 463.795 219.797L464.378 216.648C464.901 213.819 465.679 209.674 466.689 204.262C466.691 204.244 466.698 204.227 466.707 204.212C466.717 204.197 466.73 204.185 466.745 204.176C466.76 204.166 466.777 204.16 466.795 204.158C466.812 204.156 466.83 204.158 466.847 204.163C466.858 204.157 466.87 204.154 466.883 204.154C466.896 204.154 466.909 204.157 466.92 204.163L466.701 204.336C462.349 196.906 459.889 188.5 459.539 179.871C459.431 177.186 459.532 174.496 459.843 171.827C460.204 168.97 460.781 166.145 461.569 163.377C464.441 153.342 470.226 144.41 478.174 137.739C486.122 131.068 495.868 126.964 506.148 125.96C514.214 125.19 522.346 126.356 529.882 129.363C537.419 132.37 544.148 137.134 549.523 143.266L551.59 145.726C552.234 146.587 552.806 147.485 553.438 148.346C554.639 150.096 555.731 151.92 556.709 153.807C557.244 154.717 557.585 155.726 558.035 156.673C558.484 157.62 558.947 158.567 559.251 159.576C559.971 161.528 560.568 163.525 561.038 165.554C562.909 173.438 562.971 181.651 561.22 189.563C558.875 199.852 553.499 209.18 545.803 216.313C538.106 223.446 528.451 228.049 518.113 229.514C515.273 229.904 512.407 230.072 509.54 230.018C506.879 229.89 504.228 229.603 501.6 229.157C493.234 227.581 485.391 223.911 478.788 218.481H478.897L467.491 220.215L464.585 220.645L463.624 220.781L464.634 220.596L467.564 220.104L478.849 218.21H478.958C485.554 223.551 493.36 227.148 501.673 228.677C504.28 229.117 506.912 229.392 509.553 229.501C512.399 229.548 515.245 229.371 518.065 228.973C528.278 227.478 537.807 222.896 545.401 215.829C552.996 208.761 558.302 199.537 560.625 189.367C562.342 181.545 562.272 173.43 560.418 165.64C559.942 163.639 559.353 161.668 558.655 159.736C558.351 158.74 557.84 157.829 557.439 156.87C557.037 155.911 556.648 154.939 556.125 154.041C555.162 152.177 554.082 150.377 552.891 148.654C552.283 147.793 551.675 146.907 551.067 146.058L549.024 143.598C543.715 137.54 537.07 132.832 529.627 129.856C522.185 126.879 514.153 125.717 506.184 126.464C499.129 127.169 492.296 129.347 486.115 132.859C479.934 136.371 474.541 141.142 470.276 146.87C466.559 151.881 463.781 157.538 462.08 163.561C461.294 166.301 460.713 169.097 460.341 171.925C460.019 174.573 459.905 177.242 460.001 179.908C460.298 188.476 462.683 196.838 466.944 204.249C466.967 204.275 466.98 204.308 466.98 204.342C466.98 204.376 466.967 204.409 466.944 204.434C466.92 204.454 466.89 204.465 466.859 204.465C466.828 204.465 466.798 204.454 466.774 204.434L466.993 204.36C465.923 209.711 465.096 213.819 464.561 216.66C464.281 218.05 464.062 219.12 463.916 219.834C463.77 220.547 463.624 220.842 463.624 220.842Z" fill="#263238"/>
<path d="M526.723 179.44C526.72 178.396 527.024 177.374 527.597 176.504C528.169 175.635 528.984 174.956 529.937 174.555C530.891 174.155 531.941 174.049 532.954 174.252C533.967 174.455 534.898 174.958 535.628 175.697C536.358 176.436 536.855 177.377 537.056 178.402C537.257 179.426 537.153 180.488 536.756 181.453C536.36 182.418 535.69 183.242 534.83 183.821C533.97 184.399 532.96 184.707 531.927 184.705C530.548 184.702 529.226 184.146 528.251 183.159C527.275 182.173 526.726 180.836 526.723 179.44Z" fill="#263238"/>
<path d="M505.856 179.44C505.854 178.396 506.158 177.375 506.729 176.505C507.301 175.636 508.115 174.958 509.068 174.557C510.021 174.155 511.07 174.049 512.083 174.251C513.096 174.453 514.026 174.955 514.757 175.693C515.488 176.43 515.986 177.37 516.188 178.394C516.39 179.418 516.288 180.48 515.893 181.445C515.499 182.409 514.83 183.234 513.972 183.815C513.114 184.395 512.105 184.705 511.073 184.705C509.691 184.705 508.366 184.151 507.388 183.164C506.41 182.177 505.859 180.838 505.856 179.44Z" fill="#263238"/>
<path d="M485.05 182.073C484.534 181.169 484.295 180.131 484.362 179.089C484.43 178.048 484.801 177.05 485.429 176.222C486.057 175.394 486.914 174.773 487.891 174.437C488.868 174.102 489.921 174.067 490.918 174.337C491.914 174.607 492.81 175.17 493.49 175.955C494.17 176.739 494.605 177.71 494.74 178.745C494.875 179.78 494.703 180.832 494.246 181.768C493.79 182.704 493.07 183.482 492.176 184.004C490.977 184.7 489.554 184.888 488.219 184.526C486.884 184.164 485.744 183.282 485.05 182.073Z" fill="#263238"/>
<path d="M119.737 366.27C116.539 364.732 111.152 361.522 107.82 360.268C104.526 358.842 100.852 358.591 97.3987 359.554C95.441 360.218 93.4832 361.805 93.471 363.896L106.543 373.65L119.737 370.132V366.27Z" fill="#FF9A6C"/>
<path d="M105.436 366.135C105.436 366.135 81.9555 360.981 78.04 358.951C74.1245 356.922 53.72 346.59 50.303 346.59C46.8861 346.59 43.9677 347.525 43.3475 350.969L47.8102 354.474L48.3818 356.27L56.0182 360.292L57.368 362.826L76.824 373.33C76.824 373.33 97.2285 383.81 100.633 384.4C104.038 384.991 121.038 386.43 128.309 392.69L157.493 380.563C157.493 380.563 149.067 368.459 142.573 365.47C136.785 362.814 127.069 362.814 120.272 365.63L105.436 366.135Z" fill="#FFBF9D"/>
<path d="M124.965 385.95C124.965 385.95 162.114 467.893 168.097 484.35C168.097 484.35 209.623 477.437 211.046 454.129L157.542 380.329L124.965 385.95Z" fill="#FFBF9D"/>
<path d="M90.4675 367.992C90.4675 367.992 90.3216 367.992 90.0663 367.992C89.6864 367.953 89.3115 367.875 88.9475 367.758C87.6158 367.348 86.3219 366.821 85.0807 366.184C83.4999 365.409 81.6637 364.388 79.6451 363.244C78.6359 362.678 77.5779 362.076 76.4714 361.498C75.3648 360.92 74.161 360.415 72.9328 359.874C70.6588 358.832 68.3091 357.969 65.9043 357.291C63.7034 356.738 61.5875 356.319 59.9946 356.861C59.3767 357.111 58.8161 357.487 58.3476 357.965C57.8791 358.443 57.5126 359.013 57.2707 359.64C57.0911 360.119 56.884 360.588 56.6506 361.043C56.6506 361.043 56.6506 360.895 56.7114 360.649C56.7927 360.272 56.9024 359.902 57.0397 359.542C57.2546 358.968 57.545 358.426 57.9031 357.931C58.3763 357.253 59.0359 356.731 59.8 356.43C60.7426 356.111 61.7442 356.01 62.7306 356.135C63.8336 356.245 64.927 356.438 66.0016 356.713C68.4577 357.368 70.857 358.223 73.176 359.271C74.392 359.813 75.608 360.317 76.7389 360.92C77.8698 361.522 78.9155 362.15 79.9248 362.728C81.9312 363.896 83.7309 364.954 85.2752 365.766C86.4718 366.427 87.7109 367.006 88.984 367.5C89.9325 367.857 90.4675 367.931 90.4675 367.992Z" fill="#FF9A6C"/>
<path d="M68.0688 356.209C66.924 355.975 65.8156 355.586 64.7734 355.052C62.2655 353.855 59.6867 352.816 57.0518 351.941C55.6101 351.527 54.1034 351.398 52.6134 351.559C52.0189 351.577 51.4343 351.718 50.895 351.971C50.3557 352.225 49.873 352.587 49.4762 353.035C49.0006 353.702 48.6881 354.473 48.5642 355.286C48.5531 355.602 48.4915 355.913 48.3818 356.209C48.3249 355.896 48.3249 355.575 48.3818 355.261C48.4272 354.384 48.7044 353.534 49.1843 352.801C49.5565 352.289 50.0388 351.868 50.5949 351.571C51.2309 351.266 51.9133 351.07 52.6134 350.993C54.1818 350.794 55.7739 350.915 57.295 351.35C59.9673 352.217 62.5559 353.329 65.0288 354.671C66.0687 355.128 67.0835 355.641 68.0688 356.209Z" fill="#FF9A6C"/>
<path d="M126.68 363.81C126.68 363.81 126.352 364.007 125.732 364.228C124.842 364.553 123.937 364.832 123.02 365.065C120.001 365.859 116.907 366.325 113.79 366.454C110.675 366.591 107.553 366.401 104.476 365.889C103.26 365.68 102.36 365.471 101.716 365.286C101.371 365.234 101.038 365.121 100.731 364.954C100.731 364.855 102.19 365.138 104.549 365.434C107.606 365.816 110.689 365.944 113.766 365.815C116.846 365.654 119.908 365.243 122.923 364.585C125.172 364.142 126.595 363.724 126.68 363.81Z" fill="#FF9A6C"/>
<path d="M472.559 315.164L418.52 303.847L405.144 293.7L333.765 307.624C332.622 309.739 321.058 326.074 321.058 326.074L292.944 335.729C280.995 338.905 270.33 345.787 262.446 355.409C254.95 364.774 248.809 375.169 244.206 386.282C231.56 416.306 213.308 450.992 213.308 450.992L201.865 432.346L153.639 455.322C153.639 455.322 181.886 512.923 191.237 521.152C201.634 530.291 225.541 531.348 242.066 514.301C252.025 504.018 280.808 463.379 286.803 453.206L295.704 495.74L303.888 544.288L290.658 577.707H483.758L475.769 546.121C475.769 546.121 483.637 463.797 485.813 448.471C490.933 412.321 472.559 315.164 472.559 315.164Z" fill="#5ED8FF"/>
<path d="M472.559 315.164C472.559 315.164 511.228 326.135 519.74 365.015C524.896 388.57 542.406 455.716 548.571 510.992C552.219 543.857 552.122 574.226 552.219 577.707H492.878L467.732 326.135L472.559 315.164Z" fill="#5ED8FF"/>
<path d="M373.382 348.546C373.382 348.546 373.382 348.693 373.224 348.952L372.677 350.083C372.19 351.079 371.461 352.543 370.67 354.401C368.956 358.091 366.937 363.564 363.678 369.677L363.52 369.985L363.253 369.751C359.24 366.295 354.887 362.137 350.388 357.648C342.423 349.653 335.443 342.211 330.287 336.934L324.146 330.698L322.456 329.013C322.25 328.827 322.063 328.621 321.897 328.398C322.132 328.548 322.348 328.726 322.541 328.927L324.292 330.526C325.8 331.928 327.94 334.007 330.579 336.615C335.82 341.818 342.86 349.21 350.801 357.193C355.3 361.682 359.629 365.803 363.593 369.32L363.156 369.394C366.439 363.367 368.53 357.918 370.33 354.253C371.218 352.396 371.959 350.969 372.494 349.997C372.738 349.567 372.944 349.198 373.115 348.915C373.19 348.782 373.28 348.659 373.382 348.546Z" fill="black"/>
<path d="M419.274 305.237C419.27 305.528 419.233 305.817 419.164 306.098C419.043 306.713 418.897 307.525 418.715 308.558C418.277 310.674 417.499 313.724 416.501 317.439C414.398 324.819 410.993 335.016 406.773 346.024C404.548 351.854 402.359 357.365 400.316 362.248L400.158 362.629L399.854 362.359C394.346 357.439 389.409 353.564 386.065 350.686C384.387 349.247 383.074 348.091 382.186 347.279L381.201 346.344C380.97 346.123 380.86 346.012 380.873 346C381.013 346.074 381.143 346.164 381.262 346.27L382.307 347.144L386.284 350.415C389.701 353.22 394.674 357.02 400.243 361.916L399.781 362.026C401.788 357.106 403.964 351.621 406.178 345.803C410.348 334.733 413.814 324.708 416.015 317.316C417.109 313.626 417.912 310.6 418.447 308.497C418.678 307.501 418.873 306.701 419.019 306.037C419.084 305.764 419.169 305.497 419.274 305.237Z" fill="black"/>
<path d="M294.184 490.291C294.133 490.207 294.096 490.116 294.075 490.02L293.819 489.184C293.6 488.364 293.296 487.282 292.907 485.937C292.494 484.535 292.092 482.8 291.606 480.783C291.12 478.766 290.597 476.453 290.074 473.895C287.384 460.55 285.491 447.053 284.407 433.477C283.033 417.573 282.729 403.121 282.802 392.678C282.802 387.451 282.936 383.219 283.082 380.304C283.155 378.878 283.204 377.758 283.24 376.934C283.24 376.59 283.24 376.295 283.301 376.061C283.288 375.963 283.288 375.864 283.301 375.766C283.311 375.868 283.311 375.971 283.301 376.073V376.946C283.301 377.771 283.301 378.89 283.301 380.304C283.301 383.232 283.204 387.451 283.228 392.678C283.228 403.109 283.641 417.549 285.015 433.416C286.109 446.971 287.936 460.456 290.487 473.809C290.986 476.367 291.448 478.729 291.922 480.697C292.396 482.665 292.749 484.473 293.138 485.875L293.941 489.147L294.123 489.996C294.184 490.193 294.196 490.291 294.184 490.291Z" fill="black"/>
<path d="M475.769 358.287C475.841 358.394 475.899 358.509 475.939 358.632C476.049 358.89 476.195 359.222 476.365 359.64C476.754 360.575 477.277 361.891 477.958 363.552C478.299 364.413 478.7 365.348 479.089 366.393L480.244 369.837C480.658 371.067 481.095 372.408 481.57 373.81C482.044 375.212 482.36 376.75 482.786 378.336C486.434 390.993 488.258 409.308 487.212 429.344C486.166 449.381 483.831 467.474 482.348 480.463C481.606 486.958 480.998 492.234 480.572 495.924C480.366 497.708 480.195 499.122 480.074 500.119L479.928 501.213C479.919 501.339 479.895 501.463 479.855 501.582C479.839 501.46 479.839 501.336 479.855 501.213L479.94 500.106C480.037 499.098 480.171 497.646 480.329 495.9C480.67 492.21 481.205 486.945 481.898 480.414C483.223 467.351 485.461 449.32 486.531 429.32C487.601 409.32 485.801 391.104 482.311 378.447L481.095 373.921L479.879 369.96C479.49 368.73 479.125 367.561 478.785 366.504C478.444 365.446 478.031 364.499 477.703 363.638C477.07 361.953 476.584 360.637 476.219 359.689C476.073 359.259 475.952 358.927 475.854 358.656C475.807 358.538 475.779 358.414 475.769 358.287Z" fill="black"/>
<path d="M213.624 492.874C213.454 492.874 213.247 483.501 213.174 471.964C213.101 460.427 213.174 451.054 213.356 451.054C213.539 451.054 213.733 460.427 213.806 471.964C213.879 483.501 213.806 492.874 213.624 492.874Z" fill="black"/>
<path d="M389.093 549.638V549.122C389.093 548.753 389.19 548.261 389.263 547.621C389.433 546.268 389.664 544.337 389.968 541.852C390.126 540.622 390.297 539.208 390.491 537.695C390.686 536.182 390.832 534.509 391.014 532.775C391.367 529.208 391.853 525.161 392.23 520.66C392.412 518.421 392.595 516.059 392.802 513.612C393.008 511.164 393.106 508.606 393.264 505.961C393.628 500.672 393.787 495.002 393.993 489.049C394.261 477.13 394.224 464.018 393.616 450.279C393.008 436.54 391.768 423.477 390.394 411.632C389.628 405.716 388.959 400.095 388.096 394.867C387.694 392.248 387.342 389.714 386.88 387.291C386.418 384.868 386.041 382.543 385.664 380.317C384.922 375.876 384.071 371.891 383.378 368.373C383.025 366.614 382.709 364.978 382.405 363.453C382.101 361.928 381.772 360.587 381.493 359.357L380.277 353.687C380.155 353.06 380.046 352.568 379.973 352.211C379.9 351.854 379.888 351.694 379.888 351.694C379.949 351.854 379.998 352.019 380.034 352.186L380.411 353.65L381.76 359.308L382.721 363.392C383.037 364.892 383.378 366.516 383.755 368.312C384.472 371.817 385.36 375.802 386.126 380.243C386.531 382.465 386.936 384.79 387.342 387.217C387.78 389.677 388.132 392.137 388.558 394.794C389.433 400.033 390.126 405.655 390.917 411.571C392.315 423.428 393.507 436.503 394.188 450.254C394.869 464.006 394.82 477.142 394.516 489.073C394.285 495.039 394.115 500.709 393.726 505.998C393.556 508.642 393.434 511.201 393.227 513.661C393.02 516.121 392.802 518.47 392.607 520.721C392.267 525.223 391.744 529.331 391.391 532.824C391.184 534.608 390.99 536.268 390.82 537.744C390.649 539.22 390.418 540.647 390.236 541.902C389.883 544.362 389.604 546.305 389.421 547.646L389.19 549.146C389.172 549.313 389.139 549.477 389.093 549.638Z" fill="black"/>
<path d="M414.799 416.872H415.042L415.808 416.786L418.787 416.442L430.181 415.212L470.735 410.956H471.039V411.263C471.343 423.674 471.708 437.721 472.085 452.616V452.751L472 452.837L467.136 458.163L449.406 477.327L449.248 477.499L449.042 477.388L419.164 462.382L419.031 462.321V462.21C417.73 448.495 416.599 437.155 415.906 429.197C415.541 425.285 415.261 422.21 415.067 420.082C414.981 419.062 414.908 418.274 414.86 417.696C414.811 417.118 414.86 416.909 414.86 416.909C414.86 416.909 414.86 417.204 414.969 417.745C415.079 418.287 415.127 419.135 415.249 420.205C415.468 422.358 415.796 425.445 416.222 429.381C417.036 437.278 418.192 448.557 419.602 462.198L419.456 461.989L449.37 476.908L449.017 476.97L466.71 457.733L471.574 452.419L471.489 452.641C471.136 437.745 470.796 423.711 470.504 411.288L470.82 411.559L430.388 415.47L418.921 416.552L415.869 416.823L415.079 416.897L414.799 416.872Z" fill="black"/>
<path d="M471.112 425.531C470.423 425.725 469.719 425.861 469.008 425.937C467.646 426.159 465.676 426.442 463.232 426.761C458.368 427.389 451.571 428.114 444.092 428.84L424.928 430.734L419.128 431.349C418.424 431.464 417.713 431.517 417 431.509C417.689 431.316 418.393 431.18 419.104 431.103C420.466 430.882 422.436 430.599 424.88 430.279C429.744 429.652 436.541 428.926 444.032 428.2L463.184 426.306L468.984 425.691C469.688 425.577 470.399 425.523 471.112 425.531Z" fill="black"/>
<g opacity="0.3">
<path d="M482.859 473.907L484.901 499.036C489.413 477.511 496.502 454.375 495.396 432.407C494.289 410.439 492.246 389.419 480.013 369.529C485.331 384.504 487.771 400.369 487.2 416.269C486.081 441.976 482.859 473.907 482.859 473.907Z" fill="black"/>
</g>
<path d="M205.574 427.13C204.917 425.616 203.755 424.384 202.291 423.649C200.588 423.059 198.74 423.895 197.123 424.707L153.006 446.921C150.1 448.385 146.926 450.119 145.856 453.194C144.458 457.13 147.072 461.287 149.504 464.67C153.566 470.316 158.43 476.466 165.312 477.265L203.264 450.943C207.897 450.254 210.779 445.027 210.56 440.291C210.341 435.556 207.933 431.239 205.574 427.13Z" fill="#5ED8FF"/>
<path d="M210.365 443.219C210.253 443.377 210.122 443.522 209.976 443.649L208.76 444.793C207.714 445.777 206.17 447.167 204.236 448.84C200.357 452.198 194.849 456.663 188.428 461.214C182.008 465.765 176.135 469.516 171.672 472.05C169.459 473.342 167.647 474.35 166.382 475.014L164.923 475.765C164.583 475.937 164.4 476.011 164.388 475.986C164.529 475.852 164.689 475.74 164.862 475.654L166.261 474.793L171.441 471.656C175.806 469 181.753 465.187 188.1 460.648C194.448 456.109 199.993 451.718 203.908 448.459L208.565 444.559L209.781 443.514C210.195 443.317 210.353 443.194 210.365 443.219Z" fill="black"/>
<g opacity="0.3">
<path d="M418.702 308.054C413.51 325.495 406.238 345.225 400.098 362.174C394.869 357.685 387.549 351.744 382.308 347.242C386.818 356.293 392.233 364.854 398.468 372.789C399.198 373.711 400.171 374.72 401.301 374.499C402.432 374.277 402.943 373.096 403.332 372.039L412.902 346.418C417.377 334.438 421.694 320.465 418.702 308.054Z" fill="black"/>
</g>
<path d="M336.622 118.302C352.43 113.702 367.217 118.302 381.797 125.953C396.377 133.603 408.135 146.235 415.748 160.934C423.773 176.419 427.324 194.464 424.418 211.696C421.511 228.928 411.881 245.164 397.459 254.746C377.748 267.882 350.582 267.193 330.287 255.029C309.992 242.864 296.628 220.441 293.09 196.837C290.658 180.577 292.628 163.431 300.13 148.867C307.633 134.304 320.9 122.496 336.61 118.29" fill="#263238"/>
<path d="M388.521 168.351C385.469 162.41 385.603 155.362 383.937 148.867C380.289 134.587 367.399 124.267 353.391 120.147C340.368 116.297 325.301 119.188 310.831 125.805C300.933 130.344 291.922 137.305 286.012 146.53C282.147 152.714 279.799 159.742 279.165 167.03C278.53 174.317 279.627 181.653 282.364 188.424L354.583 169.212C362.098 174.132 369.795 179.212 378.489 181.512C381.019 182.303 383.706 182.426 386.296 181.868C387.581 181.561 388.752 180.886 389.668 179.924C390.584 178.963 391.208 177.754 391.464 176.444C391.768 173.517 389.847 170.946 388.521 168.351Z" fill="#263238"/>
<path d="M405.752 297.882L387.111 165.263C386.284 158.99 383.463 152.594 377.225 152.89L311.561 146.494C290.986 147.453 281.331 174.784 283.155 195.484C285.186 218.535 288.554 246.591 293.795 263.221C304.338 296.64 330.956 296.984 330.956 296.984C330.956 296.984 332.573 303.626 334.604 316.049L377.164 344.684L405.752 297.882Z" fill="#FFBF9D"/>
<path d="M299.024 220.712C299.187 221.859 299.787 222.896 300.696 223.601C301.605 224.307 302.75 224.625 303.888 224.488C304.447 224.448 304.993 224.295 305.493 224.038C305.992 223.781 306.436 223.425 306.798 222.992C307.159 222.558 307.432 222.056 307.598 221.514C307.764 220.973 307.822 220.403 307.767 219.838C307.6 218.692 307 217.656 306.092 216.949C305.185 216.242 304.041 215.92 302.903 216.05C302.343 216.093 301.798 216.249 301.299 216.508C300.8 216.766 300.357 217.123 299.996 217.557C299.635 217.991 299.363 218.494 299.196 219.036C299.029 219.577 298.97 220.147 299.024 220.712Z" fill="#263238"/>
<path d="M291.363 209.088C291.983 209.58 294.901 206.628 299.583 205.903C304.265 205.177 308.034 207.034 308.46 206.37C308.667 206.075 307.961 205.14 306.307 204.254C304.07 203.156 301.553 202.778 299.097 203.172C296.664 203.537 294.41 204.679 292.664 206.431C291.387 207.76 291.059 208.83 291.363 209.088Z" fill="#263238"/>
<path d="M342.228 213.602C342.389 214.752 342.987 215.792 343.897 216.5C344.806 217.208 345.953 217.528 347.092 217.391C347.651 217.351 348.197 217.198 348.697 216.941C349.197 216.684 349.641 216.328 350.002 215.895C350.364 215.461 350.636 214.959 350.802 214.417C350.969 213.876 351.026 213.306 350.971 212.741C350.811 211.592 350.212 210.552 349.303 209.844C348.394 209.136 347.247 208.816 346.107 208.953C345.548 208.995 345.004 209.149 344.505 209.406C344.006 209.664 343.562 210.019 343.201 210.453C342.84 210.886 342.568 211.387 342.4 211.928C342.233 212.469 342.175 213.038 342.228 213.602Z" fill="#263238"/>
<path d="M335.832 202.828C336.452 203.32 339.383 200.368 344.052 199.642C348.722 198.916 352.503 200.774 352.929 200.109C353.136 199.814 352.43 198.879 350.777 197.994C348.535 196.893 346.014 196.515 343.554 196.911C341.09 197.278 338.809 198.439 337.048 200.22C335.832 201.45 335.504 202.68 335.832 202.828Z" fill="#263238"/>
<path d="M325.764 240.552C325.764 240.281 322.76 240.22 317.969 240.343C316.753 240.343 315.537 240.343 315.257 239.543C314.978 238.744 315.148 237.341 315.513 235.853C316.194 232.762 316.911 229.519 317.665 226.124C320.583 212.274 322.529 200.97 321.957 200.86C321.386 200.749 318.589 211.93 315.659 225.706C314.965 229.113 314.297 232.372 313.676 235.484C313.433 236.923 312.886 238.596 313.774 240.306C314.007 240.708 314.329 241.049 314.716 241.303C315.102 241.557 315.541 241.717 315.999 241.769C316.685 241.863 317.38 241.863 318.066 241.769C322.845 241.253 325.788 240.81 325.764 240.552Z" fill="#263238"/>
<path d="M330.968 296.984C346.956 294.761 362.019 288.088 374.476 277.71C374.476 277.71 363.861 304.586 333.132 307.292L330.968 296.984Z" fill="#FF9A6C"/>
<path d="M329.46 251.646C330.178 250.377 331.203 249.314 332.439 248.557C333.675 247.799 335.081 247.372 336.525 247.317C337.575 247.255 338.626 247.41 339.614 247.772C340.603 248.133 341.509 248.694 342.277 249.42C343.02 250.113 343.536 251.02 343.753 252.019C343.971 253.017 343.88 254.059 343.493 255.004C342.508 256.984 339.93 257.809 337.607 257.464C335.281 257.016 333.065 256.105 331.09 254.783C330.501 254.478 329.977 254.06 329.545 253.553C329.333 253.319 329.195 253.028 329.147 252.714C329.1 252.401 329.145 252.081 329.278 251.794" fill="#FF9A6C"/>
<path d="M340.015 241.696C339.237 241.769 340.015 246.911 336.209 251.216C332.403 255.521 326.943 255.804 327.004 256.517C327.004 256.861 328.366 257.329 330.652 257.046C333.632 256.628 336.37 255.16 338.386 252.901C340.319 250.736 341.344 247.895 341.243 244.98C341.109 242.803 340.355 241.622 340.015 241.696Z" fill="#263238"/>
<path d="M334.494 188.707C335.151 189.937 339.723 188.596 345.305 188.412C350.886 188.227 355.556 189.064 356.103 187.797C356.346 187.194 355.397 186.112 353.415 185.14C350.799 183.985 347.957 183.446 345.105 183.565C342.252 183.685 339.464 184.459 336.951 185.829C335.066 186.961 334.203 188.129 334.494 188.707Z" fill="#263238"/>
<path d="M289.624 188.215C290.609 189.162 293.661 187.551 297.528 186.899C301.395 186.247 304.824 186.518 305.359 185.275C305.614 184.673 304.933 183.689 303.353 182.889C301.244 181.971 298.915 181.705 296.657 182.126C294.4 182.546 292.316 183.634 290.67 185.251C289.442 186.567 289.162 187.748 289.624 188.215Z" fill="#263238"/>
<path d="M399.149 156.998C390.297 138.007 358.267 114.427 337.936 118.646L307.791 142.951C309.601 148.466 312.85 153.385 317.195 157.186C321.54 160.988 326.82 163.532 332.476 164.55C338.495 165.559 345.548 165.103 349.658 169.679C353.768 174.255 352.783 182.127 356.759 186.985C362.268 193.726 374.622 191.708 379.073 199.211C381.031 202.483 380.8 206.739 382.794 209.986C385.469 214.303 397.739 218.596 402.25 216.407C406.761 214.217 405.74 206.05 406.725 201.536C408.415 193.849 406.81 190.195 405.399 186.21C402.104 176.764 403.381 166.051 399.149 156.998Z" fill="#263238"/>
<path d="M388.789 222.36C388.412 219.802 390.418 213.344 392.85 212.52C399.344 210.454 411.419 209.137 414.106 226.21C417.754 249.58 393.872 248.461 393.714 247.796C393.556 247.132 390.102 231.142 388.789 222.36Z" fill="#FFBF9D"/>
<path d="M399.368 237.833C399.465 237.735 399.818 238.055 400.584 238.252C401.605 238.518 402.688 238.368 403.6 237.833C405.886 236.542 407.321 232.298 406.773 228.067C406.516 226.059 405.818 224.134 404.731 222.434C404.401 221.739 403.908 221.136 403.296 220.677C402.684 220.218 401.97 219.918 401.216 219.802C400.735 219.751 400.252 219.874 399.852 220.149C399.451 220.423 399.16 220.832 399.028 221.302C398.821 222.003 399.028 222.446 398.918 222.532C398.809 222.618 398.371 222.225 398.395 221.228C398.435 220.632 398.676 220.068 399.076 219.629C399.632 219.038 400.397 218.693 401.204 218.67C403.004 218.51 404.852 219.9 405.971 221.61C407.273 223.474 408.108 225.631 408.403 227.895C408.999 232.618 407.309 237.403 404.123 238.965C403.534 239.248 402.89 239.395 402.238 239.395C401.586 239.395 400.942 239.248 400.353 238.965C399.502 238.35 399.295 237.883 399.368 237.833Z" fill="#FF9A6C"/>
<path d="M313.725 135.091C312.667 144.931 299.692 158.769 294.269 166.924C283.848 182.483 282 187.465 285.672 219.15C278.765 208.855 273.22 198.621 272.296 186.21C271.372 173.8 274.46 160.921 281.951 151.057C289.442 141.192 301.492 134.698 313.786 135.067" fill="#263238"/>
<path d="M368.822 101.722C373.686 96.2973 380.715 92.7672 388.011 90.9222C398.407 88.29 409.826 89.0034 419.286 93.579C428.747 98.1546 436.067 106.74 437.976 116.58C438.915 121.635 438.473 126.853 436.699 131.673C434.925 136.492 431.886 140.732 427.908 143.935C433.317 149.24 439.912 153.147 447.132 155.325C445.163 158.314 441.527 160.06 437.854 160.688C434.162 161.155 430.426 161.13 426.74 160.614C429.256 164.417 433.021 167.196 437.368 168.461C431.384 169.859 425.142 169.651 419.262 167.859C413.51 166.095 408.006 163.595 402.882 160.417C385.092 149.974 375.279 140.823 363.265 124.747C361.696 117.81 363.922 107.158 368.822 101.722Z" fill="#263238"/>
<path d="M407.175 151.02C394.115 131.721 377.492 121.402 362.45 118.191L407.175 151.02Z" fill="#263238"/>
<path d="M362.45 118.191C363.14 118.47 363.852 118.689 364.578 118.843C365.952 119.237 367.934 119.839 370.318 120.762C376.523 123.2 382.357 126.513 387.646 130.602C392.936 134.681 397.757 139.347 402.019 144.513C403.624 146.518 404.925 148.203 405.764 149.31C406.182 149.938 406.654 150.526 407.175 151.069C406.823 150.396 406.416 149.755 405.959 149.15C405.18 147.92 403.94 146.26 402.372 144.23C398.217 138.909 393.43 134.126 388.12 129.987C382.767 125.857 376.821 122.58 370.488 120.27C368.578 119.583 366.629 119.012 364.651 118.56C363.928 118.378 363.192 118.255 362.45 118.191Z" fill="#455A64"/>
<path d="M422.74 167.465L422.448 167.563L421.597 167.908C420.867 168.228 419.773 168.646 418.338 169.138C414.282 170.511 410.076 171.379 405.813 171.721C399.492 172.197 393.137 171.783 386.928 170.491C379.324 168.875 371.89 166.532 364.724 163.492C357.063 160.331 349.84 157.084 343.408 153.898C337.694 151.102 332.195 147.879 326.955 144.255C323.433 141.801 320.107 139.07 317.008 136.088C315.89 135.042 315.087 134.169 314.576 133.628L313.932 132.976C313.786 132.841 313.713 132.767 313.701 132.779C313.689 132.791 313.701 132.865 313.883 133.025L314.479 133.726C315.002 134.341 315.78 135.239 316.911 136.321C319.958 139.391 323.257 142.193 326.773 144.698C331.994 148.408 337.495 151.698 343.225 154.538C349.67 157.773 356.881 161.044 364.554 164.218C371.764 167.266 379.249 169.601 386.904 171.192C393.174 172.458 399.59 172.814 405.959 172.25C410.216 171.856 414.408 170.922 418.435 169.47C419.858 168.916 420.94 168.461 421.657 168.092L422.472 167.686C422.654 167.527 422.752 167.477 422.74 167.465Z" fill="#455A64"/>
<path d="M353.841 283.294L351.64 278.94C351.798 278.854 367.071 270.933 372.944 265.939C386.782 254.18 399.502 235.398 399.636 235.189L403.648 237.956C403.113 238.756 390.43 257.489 376.069 269.69C369.746 275.029 354.485 282.962 353.841 283.294Z" fill="#455A64"/>
<path d="M365.211 269.703C365.211 269.703 344.344 279.124 344.344 281.215C344.344 283.306 347.652 287.488 350.132 287.279C352.613 287.07 359.787 282.987 361.076 281.314C362.365 279.641 364.651 275.336 367.156 273.245L365.211 269.703Z" fill="#263238"/>
<path d="M403.478 206.37L398.614 206.136C398.79 191.949 396.375 177.85 391.488 164.55C380.933 137.047 360.638 122.287 331.187 120.664C328.508 120.545 325.824 120.73 323.186 121.217L325.314 119.175C326.345 118.191 327.544 117.403 328.852 116.851C330.646 116.092 332.595 115.788 334.531 115.965C371.716 119.224 388.521 143.136 396.073 162.914C401.217 176.801 403.729 191.543 403.478 206.37Z" fill="#455A64"/>
<path d="M401.046 251.105C409.555 251.105 416.453 241.072 416.453 228.694C416.453 216.317 409.555 206.284 401.046 206.284C392.537 206.284 385.639 216.317 385.639 228.694C385.639 241.072 392.537 251.105 401.046 251.105Z" fill="#455A64"/>
<path d="M416.453 228.694C416.438 228.593 416.438 228.489 416.453 228.387C416.453 228.141 416.453 227.846 416.38 227.477C416.325 226.315 416.208 225.157 416.027 224.008C415.399 219.771 413.768 215.749 411.273 212.286C410.432 211.167 409.461 210.155 408.379 209.273C407.2 208.334 405.872 207.606 404.451 207.12C402.93 206.622 401.319 206.466 399.733 206.665C398.054 206.92 396.447 207.528 395.015 208.449C391.98 210.585 389.636 213.58 388.278 217.059C386.759 220.763 385.978 224.734 385.978 228.744C385.978 232.754 386.759 236.724 388.278 240.429C389.635 243.908 391.979 246.904 395.015 249.039C396.447 249.96 398.054 250.567 399.733 250.822C401.32 251.015 402.929 250.86 404.451 250.367C405.872 249.881 407.2 249.153 408.379 248.215C409.458 247.329 410.429 246.318 411.273 245.201C413.768 241.738 415.399 237.717 416.027 233.479C416.207 232.33 416.325 231.172 416.38 230.011C416.38 229.642 416.38 229.346 416.453 229.1C416.437 228.999 416.437 228.895 416.453 228.793C416.472 228.894 416.472 228.999 416.453 229.1V230.011C416.44 231.183 416.359 232.353 416.21 233.516C415.666 237.829 414.069 241.938 411.565 245.472C410.713 246.63 409.725 247.68 408.622 248.596C407.406 249.589 406.027 250.359 404.548 250.871C402.954 251.401 401.265 251.573 399.599 251.376C397.839 251.12 396.153 250.492 394.65 249.531C391.504 247.366 389.069 244.299 387.658 240.724C386.093 236.945 385.287 232.89 385.287 228.793C385.287 224.696 386.093 220.64 387.658 216.862C389.069 213.287 391.504 210.22 394.65 208.055C396.153 207.094 397.839 206.465 399.599 206.21C401.265 206.013 402.954 206.185 404.548 206.714C406.027 207.226 407.406 207.996 408.622 208.99C409.728 209.903 410.716 210.953 411.565 212.114C414.073 215.646 415.67 219.755 416.21 224.07C416.358 225.228 416.439 226.395 416.453 227.563V228.485C416.461 228.555 416.461 228.625 416.453 228.694Z" fill="#263238"/>
<path d="M403.417 241.708C408.837 241.708 413.23 235.32 413.23 227.44C413.23 219.56 408.837 213.172 403.417 213.172C397.998 213.172 393.604 219.56 393.604 227.44C393.604 235.32 397.998 241.708 403.417 241.708Z" fill="#455A64"/>
<path d="M413.23 227.44C413.157 227.44 413.23 226.357 412.878 224.451C412.471 221.778 411.428 219.245 409.838 217.071C408.757 215.58 407.257 214.452 405.533 213.836C404.576 213.525 403.564 213.428 402.566 213.553C401.514 213.712 400.507 214.093 399.611 214.672C397.703 216.017 396.227 217.899 395.367 220.084C394.406 222.423 393.914 224.932 393.92 227.464C393.908 229.998 394.4 232.508 395.367 234.844C396.227 237.03 397.703 238.912 399.611 240.256C400.507 240.836 401.514 241.217 402.566 241.376C403.564 241.501 404.576 241.404 405.533 241.093C407.257 240.477 408.757 239.349 409.838 237.858C411.428 235.684 412.471 233.151 412.878 230.478C413.182 228.571 413.157 227.489 413.23 227.501C413.247 227.759 413.247 228.018 413.23 228.276C413.229 229.025 413.18 229.773 413.085 230.515C412.762 233.274 411.754 235.906 410.154 238.165C409.04 239.759 407.47 240.97 405.655 241.634C404.631 241.986 403.543 242.104 402.469 241.978C401.329 241.8 400.24 241.381 399.271 240.748C397.249 239.361 395.683 237.395 394.772 235.103C393.769 232.682 393.252 230.083 393.252 227.458C393.252 224.833 393.769 222.235 394.772 219.814C395.683 217.521 397.249 215.556 399.271 214.168C400.236 213.538 401.322 213.119 402.457 212.938C403.535 212.813 404.627 212.931 405.655 213.283C407.47 213.947 409.04 215.157 410.154 216.751C411.754 219.01 412.762 221.642 413.085 224.402C413.18 225.144 413.229 225.892 413.23 226.64C413.247 226.907 413.247 227.174 413.23 227.44Z" fill="#263238"/>
<path d="M404.098 237.698C407.993 237.698 411.151 233.105 411.151 227.44C411.151 221.774 407.993 217.182 404.098 217.182C400.203 217.182 397.045 221.774 397.045 227.44C397.045 233.105 400.203 237.698 404.098 237.698Z" fill="#455A64"/>
<path d="M411.151 227.44C411.09 227.44 411.09 226.665 410.871 225.3C410.558 223.38 409.8 221.564 408.658 219.998C407.889 218.937 406.821 218.135 405.594 217.698C404.895 217.472 404.155 217.409 403.428 217.513C402.702 217.618 402.008 217.887 401.399 218.301C398.76 220.06 397.362 223.75 397.349 227.428C397.337 231.105 398.76 234.808 401.399 236.566C402.008 236.981 402.702 237.25 403.428 237.354C404.155 237.459 404.895 237.395 405.594 237.169C406.821 236.732 407.889 235.931 408.658 234.869C409.8 233.304 410.558 231.487 410.871 229.568C411.09 228.202 411.09 227.428 411.151 227.44C411.18 227.623 411.18 227.81 411.151 227.993C411.157 228.532 411.129 229.07 411.066 229.605C410.847 231.604 410.127 233.513 408.974 235.152C408.154 236.286 407.014 237.143 405.703 237.612C404.957 237.866 404.164 237.954 403.381 237.87C402.551 237.754 401.755 237.461 401.046 237.009C399.574 236.001 398.435 234.57 397.775 232.901C397.043 231.15 396.666 229.268 396.666 227.366C396.666 225.465 397.043 223.583 397.775 221.831C398.435 220.162 399.574 218.731 401.046 217.723C401.755 217.271 402.551 216.978 403.381 216.862C404.164 216.778 404.957 216.866 405.703 217.12C407.014 217.589 408.154 218.446 408.974 219.58C410.127 221.219 410.847 223.128 411.066 225.127C411.129 225.662 411.157 226.2 411.151 226.739C411.195 226.97 411.195 227.208 411.151 227.44Z" fill="#263238"/>
</g>
<defs>
<filter id="filter0_d_3_207" x="-4" y="0.5" width="616" height="623" filterUnits="userSpaceOnUse" color-interpolation-filters="sRGB">
<feFlood flood-opacity="0" result="BackgroundImageFix"/>
<feColorMatrix in="SourceAlpha" type="matrix" values="0 0 0 0 0 0 0 0 0 0 0 0 0 0 0 0 0 0 127 0" result="hardAlpha"/>
<feOffset dy="4"/>
<feGaussianBlur stdDeviation="2"/>
<feComposite in2="hardAlpha" operator="out"/>
<feColorMatrix type="matrix" values="0 0 0 0 0 0 0 0 0 0 0 0 0 0 0 0 0 0 0.25 0"/>
<feBlend mode="normal" in2="BackgroundImageFix" result="effect1_dropShadow_3_207"/>
<feBlend mode="normal" in="SourceGraphic" in2="effect1_dropShadow_3_207" result="shape"/>
</filter>
</defs>
</svg>
